# xmcd
#
# Track frame offsets: 
#        150
#        16277
#        37801
#        57033
#        69978
#        77760
#        91699
#        106851
#        115363
#        131465
#        139507
#        157152
#        176876
#
# Disc length: 2537 seconds
#
# Revision: 0
# Processed by: cddbd v1.4PL0 Copyright (c) Steve Scherf et al.
# Submitted via: ExactAudioCopy v0.90b4
#
DISCID=9e09e70d
DTITLE=Mao (e la rivoluzione) - Casa
DYEAR=1997
DGENRE=Pop
TTITLE0=Stringimi
TTITLE1=Bolla di sapone
TTITLE2=Chinese take-away
TTITLE3=Romantico
TTITLE4=Prima che sia troppo tardi
TTITLE5=Sogni d'oro
TTITLE6=Pazzo di te
TTITLE7=Il mare a Tokyo
TTITLE8=La moglie del soldato
TTITLE9=Colazione
TTITLE10=Solo quando piove
TTITLE11=Satelliti
TTITLE12=Casa
EXTD=( 1997 information ]\nmaoelarivoluz@hotmail.com
EXTT0=
EXTT1=
EXTT2=
EXTT3=
EXTT4=
EXTT5=
EXTT6=
EXTT7=
EXTT8=
EXTT9=
EXTT10=
EXTT11=
EXTT12=
PLAYORDER=
